<svg width="215" height="46" fill="none" xmlns="http://www.w3.org/2000/svg"><path d="M140.255 25.706h-3.988l-1.067-.441c-1.217-.383-2.143-.95-2.779-1.703-.635-.758-.953-1.726-.953-2.901 0-1.026.229-1.88.687-2.564.458-.69 1.107-1.21 1.948-1.558.841-.35 1.839-.523 2.994-.523h5.414v14.93h-3.609V18.793h-1.805c-.718 0-1.237.188-1.558.564-.322.37-.482.91-.482 1.62 0 .547.075.978.225 1.292.157.315.386.54.687.677.301.13.677.195 1.128.195h3.138l.02 2.564zm-2.768-1.344l-3.169 6.583h-3.917l3.128-6.583h3.958zm17.79 2.061h-3.404l-.02-2.132h2.83c.28 0 .502-.031.666-.093a.63.63 0 00.359-.277.907.907 0 00.113-.461 1.12 1.12 0 00-.082-.451.634.634 0 00-.236-.298 1.015 1.015 0 00-.39-.164 2.629 2.629 0 00-.553-.05h-1.303v8.448h-3.455V19.851h4.758c.731 0 1.387.065 1.968.194.581.123 1.074.315 1.477.575.41.253.724.574.943.963.219.39.328.848.328 1.375 0 .341-.082.663-.246.963a2.42 2.42 0 01-.728.8 4.047 4.047 0 01-1.169.574 6.729 6.729 0 01-1.599.267l-.257.861zm0 4.522h-4.152l1.056-2.645h3.096c.287 0 .52-.034.698-.103a.748.748 0 00.389-.307.96.96 0 00.123-.503 1.16 1.16 0 00-.102-.502.726.726 0 00-.369-.339c-.171-.082-.417-.123-.739-.123h-2.707l.021-2.132h2.922l.738.871c.862.048 1.562.195 2.103.441.546.246.946.557 1.199.933.26.376.39.79.39 1.24 0 .527-.103.989-.308 1.385a2.576 2.576 0 01-.892.995c-.396.26-.885.458-1.466.595-.574.13-1.241.194-2 .194zm13.341-11.094h3.455l-.051 3.496c-.021 1.258-.168 2.338-.441 3.24-.267.896-.629 1.644-1.087 2.246a5.367 5.367 0 01-1.579 1.405c-.588.335-1.21.57-1.866.707h-.369l-.072-2.625.267-.04c.41-.41.728-.8.953-1.17a4.01 4.01 0 00.492-1.128c.103-.376.168-.776.195-1.2.027-.43.045-.909.051-1.435l.052-3.496zm.964 0h7.669v11.094h-3.445v-8.428h-4.224V19.85zm-3.692 8.428h13.023v6.03h-3.456v-3.364h-6.019v3.364h-3.548v-6.03zm19.585 2.871c-.902 0-1.709-.14-2.42-.42a5.277 5.277 0 01-1.805-1.18 5.243 5.243 0 01-1.117-1.722 5.627 5.627 0 01-.38-2.06v-.39c0-.814.113-1.566.339-2.256a5.247 5.247 0 011.005-1.826 4.482 4.482 0 011.671-1.21c.67-.293 1.449-.44 2.338-.44.786 0 1.49.126 2.112.379a4.29 4.29 0 011.579 1.087c.438.472.769 1.042.995 1.712.232.67.349 1.422.349 2.256v1.405h-9.065V24.32h5.691v-.266c.007-.37-.058-.684-.195-.944a1.342 1.342 0 00-.574-.594c-.253-.137-.56-.206-.923-.206-.376 0-.687.083-.933.247a1.68 1.68 0 00-.564.676c-.13.28-.222.605-.277.974-.054.37-.082.76-.082 1.17v.39c0 .41.055.782.164 1.117.117.335.281.622.492.861.219.233.479.414.78.544.307.13.656.194 1.046.194a3.84 3.84 0 001.394-.266 2.786 2.786 0 001.179-.882l1.569 1.866c-.225.321-.547.632-.964.933-.41.301-.902.547-1.476.738a6.281 6.281 0 01-1.928.277zm13.597-11.3v2.667h-5.496V19.85h5.496zm2.389 0v11.095h-3.456V19.851h3.456zm-8.757 0h3.374l-.308 5.712a11.437 11.437 0 01-.277 2.082c-.137.594-.321 1.104-.554 1.527a3.5 3.5 0 01-.81 1.026 3.1 3.1 0 01-1.066.574 4.574 4.574 0 01-1.292.174h-1.046l-.051-2.645.369-.041c.185-.02.349-.082.492-.185a1.39 1.39 0 00.38-.43 2.78 2.78 0 00.276-.708 6.72 6.72 0 00.195-1.015c.055-.39.093-.837.113-1.343l.205-4.727zm16.027 11.3c-.902 0-1.709-.14-2.42-.42a5.277 5.277 0 01-1.805-1.18 5.227 5.227 0 01-1.117-1.722 5.627 5.627 0 01-.38-2.06v-.39c0-.814.113-1.566.339-2.256a5.247 5.247 0 011.005-1.826 4.482 4.482 0 011.671-1.21c.67-.293 1.449-.44 2.338-.44.786 0 1.49.126 2.112.379a4.29 4.29 0 011.579 1.087c.438.472.769 1.042.995 1.712.232.67.348 1.422.348 2.256v1.405h-9.064V24.32h5.691v-.266c.007-.37-.058-.684-.195-.944a1.342 1.342 0 00-.574-.594c-.253-.137-.561-.206-.923-.206-.376 0-.687.083-.933.247a1.68 1.68 0 00-.564.676c-.13.28-.222.605-.277.974-.055.37-.082.76-.082 1.17v.39c0 .41.055.782.164 1.117.116.335.28.622.492.861.219.233.479.414.78.544.307.13.656.194 1.046.194a3.84 3.84 0 001.394-.266 2.786 2.786 0 001.179-.882l1.569 1.866c-.225.321-.547.632-.964.933-.41.301-.902.547-1.476.738a6.286 6.286 0 01-1.928.277z" fill="#fff"/><path d="M102.31 2.384v43.123" stroke="#fff" stroke-opacity=".5"/><circle cx="51.115" cy="22.615" r="22.16" fill="#F79E1B"/><circle cx="22.912" cy="22.615" r="22.16" fill="#EB001B"/><mask id="a" style="mask-type:alpha" maskUnits="userSpaceOnUse" x="28" y="0" width="46" height="45"><circle cx="51.115" cy="22.615" r="22.16" fill="#FF5F00"/></mask><g mask="url(#a)"><circle cx="22.912" cy="22.615" r="22.16" fill="#FF5F00"/></g></svg>